<svg height="60" viewBox="0 0 60 60" width="60" xmlns="http://www.w3.org/2000/svg"><g id="Page-1" fill="none" fill-rule="evenodd"><g id="011---Web-UI-Design" fill-rule="nonzero" transform="translate(-1)"><path id="Shape" d="m60 3.18v39.82h-5.37c.9100088-1.5664967.6513776-3.5493363-.63-4.83l-19.8-19.8-5.17-2.62-3.58-1.81c-.3844854-.1904922-.8476428-.1144645-1.1510537.1889463-.3034108.3034109-.3794385.7665683-.1889463 1.1510537l1.81 3.58 2.62 5.17 18.97 18.97h-31.51v-36c-.0032948-1.10320187-.8967981-1.9967052-2-2h-6c-1.10320187.0032948-1.9967052.89679813-2 2v36h-4v-39.82c-.04521019-1.152631.84774936-2.12595691 2-2.18h54c1.1522506.05404309 2.0452102 1.027369 2 2.18z" fill="#00bcd4"/><path id="Shape" d="m60 43v3.82c.0452102 1.152631-.8477494 2.1259569-2 2.18h-42v-6h31.51l.83.83c1.5642825 1.5597839 4.0957175 1.5597839 5.66 0 .246457-.2470005.4583775-.5261974.63-.83z" fill="#7f8e94"/><path id="Shape" d="m49.667 44.709c-.4969825-.2007064-.9483315-.4996784-1.327-.879l-.83-.83h-3l.83.83c1.1353341 1.1346201 2.8389452 1.4806969 4.327.879z" fill="#545c60"/><path id="Shape" d="m57 43v3.82c.0452102 1.152631-.8477494 2.1259569-2 2.18h3c1.1522506-.0540431 2.0452102-1.027369 2-2.18v-3.82z" fill="#545c60"/><path id="Shape" d="m6 43v6h-2c-1.15225064-.0540431-2.04521019-1.027369-2-2.18v-3.82z" fill="#7f8e94"/><path id="Shape" d="m42 55h-22l3-6h16z" fill="#545c60"/><path id="Shape" d="m48 57c-.0032948 1.1032019-.8967981 1.9967052-2 2h-30c-1.1011688-.0081672-1.9918328-.8988312-2-2 .0032948-1.1032019.8967981-1.9967052 2-2h30c1.1011688.0081672 1.9918328.8988312 2 2z" fill="#7f8e94"/><path id="Shape" d="m47.41 55.59c-.3704612-.3798589-.8794095-.5928231-1.41-.59l-3-.0000277c1.1011688.0081949 1.9918328.8988589 2 2.0000277-.0032948 1.1032019-.8967981 1.9967052-2 2h3c1.1032019-.0032948 1.9967052-.8967981 2-2 .0028231-.5305905-.2101411-1.0395388-.59-1.41z" fill="#545c60"/><path id="Shape" d="m58 1h-3c1.1522506.05404309 2.0452102 1.027369 2 2.18v39.82h3v-39.82c.0452102-1.152631-.8477494-2.12595691-2-2.18z" fill="#00838f"/><path id="Shape" d="m28.54 24.03-2.62-5.17-1.81-3.58c-.0842263-.1699184-.1172325-.3606598-.095-.549l-1.565-.791c-.3844854-.1904922-.8476428-.1144645-1.1510537.1889463-.3034108.3034109-.3794385.7665683-.1889463 1.1510537l1.81 3.58 2.62 5.17 18.97 18.97h3z" fill="#00838f"/><path id="Shape" d="m3 7v36h3v-36c.0032948-1.10320187.89679813-1.9967052 2-2h-3c-1.10320187.0032948-1.9967052.89679813-2 2z" fill="#00838f"/><rect id="Rectangle-path" fill="#ffdc00" height="46" rx="2" width="10" x="6" y="5"/><path id="Shape" d="m14 5h-3c1.1032019.0032948 1.9967052.89679813 2 2v42c-.0032948 1.1032019-.8967981 1.9967052-2 2h3c1.1032019-.0032948 1.9967052-.8967981 2-2v-42c-.0032948-1.10320187-.8967981-1.9967052-2-2z" fill="#fec108"/><path id="Shape" d="m54.63 43c-.1716225.3038026-.383543.5829995-.63.83-1.5642825 1.5597839-4.0957175 1.5597839-5.66 0l-.83-.83-2-2 5.66-5.66 2.83 2.83c1.2813776 1.2806637 1.5400088 3.2635033.63 4.83z" fill="#ef314c"/><path id="Rectangle-path" d="m34.438 18.271h8.004v19.997h-8.004z" fill="#ffdc00" transform="matrix(.707 -.707 .707 .707 -8.731 35.461)"/><path id="Rectangle-path" d="m42.923 34.754h8.004v4.002h-8.004z" fill="#7f8e94" transform="matrix(.707 -.707 .707 .707 -12.246 43.946)"/><path id="Shape" d="m31.368 21.201 14.142 14.142" fill="#000" stroke="#000" stroke-linecap="round" stroke-linejoin="round" stroke-width="2"/><path id="Shape" d="m29.03 15.75c-.2481836.7232153-.6586734 1.3799991-1.2 1.92-.536793.5381313-1.1903682.9453326-1.91 1.19l-1.81-3.58c-.1904922-.3844854-.1144645-.8476428.1889463-1.1510537.3034109-.3034108.7665683-.3794385 1.1510537-.1889463z" fill="#37474f"/><path id="Shape" d="m34.2 18.37-5.66 5.66-2.62-5.17c.7196318-.2446674 1.373207-.6518687 1.91-1.19.5413266-.5400009.9518164-1.1967847 1.2-1.92z" fill="#ffe0b2"/><g fill="#f5f5f5"><circle id="Oval" cx="50.46" cy="41.707" r="1"/><path id="Shape" d="m46 8h-6c-.5522847 0-1-.44771525-1-1s.4477153-1 1-1h6c.5522847 0 1 .44771525 1 1s-.4477153 1-1 1z"/><path id="Shape" d="m54 8h-4c-.5522847 0-1-.44771525-1-1s.4477153-1 1-1h4c.5522847 0 1 .44771525 1 1s-.4477153 1-1 1z"/><path id="Shape" d="m54 16h-4c-.5522847 0-1-.4477153-1-1s.4477153-1 1-1h4c.5522847 0 1 .4477153 1 1s-.4477153 1-1 1z"/><path id="Shape" d="m54 12h-9c-.5522847 0-1-.4477153-1-1s.4477153-1 1-1h9c.5522847 0 1 .4477153 1 1s-.4477153 1-1 1z"/><path id="Shape" d="m34 38h-6c-.5522847 0-1-.4477153-1-1s.4477153-1 1-1h6c.5522847 0 1 .4477153 1 1s-.4477153 1-1 1z"/><path id="Shape" d="m24 38h-4c-.5522847 0-1-.4477153-1-1s.4477153-1 1-1h4c.5522847 0 1 .4477153 1 1s-.4477153 1-1 1z"/><path id="Shape" d="m24 30h-4c-.5522847 0-1-.4477153-1-1s.4477153-1 1-1h4c.5522847 0 1 .4477153 1 1s-.4477153 1-1 1z"/><path id="Shape" d="m29 34h-9c-.5522847 0-1-.4477153-1-1s.4477153-1 1-1h9c.5522847 0 1 .4477153 1 1s-.4477153 1-1 1z"/></g><path id="Shape" d="m58 0h-54c-1.7044406.05441939-3.04487651 1.47528146-3 3.18v43.64c-.04487651 1.7047185 1.2955594 3.1255806 3 3.18h1.184c.42225455 1.1943509 1.54921457 1.9947486 2.816 2h6c1.2667854-.0052514 2.3937454-.8056491 2.816-2h4.566l-2 4h-3.382c-1.6568542 0-3 1.3431458-3 3s1.3431458 3 3 3h30c1.6568542 0 3-1.3431458 3-3s-1.3431458-3-3-3h-3.382l-2-4h17.382c1.7044406-.0544194 3.0448765-1.4752815 3-3.18v-43.64c.0448765-1.70471854-1.2955594-3.12558061-3-3.18zm-54 2h54c.5957957.06159786 1.0369584.58216988 1 1.18v38.82h-2.94c.3368044-1.6444308-.1740077-3.3481396-1.36-4.536l-19.8-19.8c-.0798562-.0687611-.1651332-.1309631-.255-.186l-8.745-4.43c-.7707719-.3847284-1.7012928-.2326877-2.3095252.3773603s-.7574988 1.5410179-.3704748 2.3106397l4.43 8.745c.0539019.0903712.1158177.1757146.185.255l17.265 17.264h-28.1v-35c0-1.65685425-1.3431458-3-3-3h-6c-1.65685425 0-3 1.34314575-3 3v35h-2v-38.82c-.0369584-.59783012.40420433-1.11840214 1-1.18zm25.954 22.029 1.414-1.414 12.732 12.728-1.414 1.415zm-1.146-1.682-1.53-3.018c.9303558-.5207269 1.6991785-1.2878197 2.222-2.217l3.018 1.529zm-2.434-4.8-1.374-2.713 2.712 1.375c-.3307876.5474606-.7900452 1.0060317-1.338 1.336zm19.136 16.382-12.728-12.729 1.418-1.413 12.725 12.728zm-1.41 4.242 4.243-4.242 1.414 1.414-4.247 4.243zm2.824 2.829 4.243-4.243 2.122 2.121c1.1719482 1.1716721 1.1721721 3.0715518.0005 4.2435s-3.0715518 1.1721721-4.2435.0005zm-43.924 5.82v-2.82h2v4h-1c-.59579567-.0615979-1.0369584-.5821699-1-1.18zm11 3.18h-6c-.55228475 0-1-.4477153-1-1v-42c0-.55228475.44771525-1 1-1h6c.5522847 0 1 .44771525 1 1v2h-3c-.5522847 0-1 .44771525-1 1 0 .5522847.4477153 1 1 1h3v2h-1c-.5522847 0-1 .4477153-1 1s.4477153 1 1 1h1v2h-3c-.5522847 0-1 .4477153-1 1s.4477153 1 1 1h3v2h-1c-.5522847 0-1 .4477153-1 1s.4477153 1 1 1h1v2h-3c-.5522847 0-1 .4477153-1 1s.4477153 1 1 1h3v2h-1c-.5522847 0-1 .4477153-1 1s.4477153 1 1 1h1v2h-3c-.5522847 0-1 .4477153-1 1s.4477153 1 1 1h3v2h-1c-.5522847 0-1 .4477153-1 1s.4477153 1 1 1h1v2h-3c-.5522847 0-1 .4477153-1 1s.4477153 1 1 1h3v2h-1c-.5522847 0-1 .4477153-1 1s.4477153 1 1 1h1v2c0 .5522847-.4477153 1-1 1zm33 7c0 .5522847-.4477153 1-1 1h-30c-.5522847 0-1-.4477153-1-1s.4477153-1 1-1h30c.5522847 0 1 .4477153 1 1zm-6.618-3h-18.764l2-4h14.764zm17.618-6h-41v-4h30.1l.536.536c1.0003773 1.0610202 2.4246189 1.6163008 3.8791717 1.5124042 1.4545529-.1038967 2.785412-.8559702 3.6248283-2.0484042h3.86v2.82c.0369584.5978301-.4042043 1.1184021-1 1.18z" fill="#000"/></g></g></svg>